<?xml version="1.0" standalone="no"?>
<!DOCTYPE svg PUBLIC "-//W3C//DTD SVG 20010904//EN"
 "http://www.w3.org/TR/2001/REC-SVG-20010904/DTD/svg10.dtd">
<svg version="1.0" xmlns="http://www.w3.org/2000/svg"
 width="510.000000pt" height="510.000000pt" viewBox="0 0 510.000000 510.000000"
 preserveAspectRatio="xMidYMid meet">
<metadata>
Created by potrace 1.14, written by Peter Selinger 2001-2017
</metadata>
<g transform="translate(0.000000,510.000000) scale(0.100000,-0.100000)"
fill="#000000" stroke="none">
<path d="M2200 4543 c-41 -5 -105 -44 -126 -75 -14 -21 -25 -27 -39 -23 -11 3
-81 10 -155 15 -196 15 -501 -4 -675 -41 -170 -37 -454 -138 -565 -201 -159
-90 -204 -117 -280 -169 -145 -97 -282 -237 -335 -339 -13 -25 -20 -64 -22
-135 -4 -85 -2 -105 15 -135 28 -50 47 -49 93 4 23 25 46 46 52 46 6 0 -3 -15
-21 -33 -33 -34 -41 -64 -19 -73 7 -2 40 7 73 20 225 92 746 193 1104 216 427
26 534 29 551 14 8 -8 21 -14 27 -14 30 0 45 -218 22 -315 -5 -22 -8 -78 -6
-125 3 -106 40 -193 93 -218 26 -12 36 -26 48 -66 32 -105 38 -121 67 -170 29
-50 56 -82 149 -175 54 -54 142 -127 147 -123 2 2 17 -9 33 -24 22 -21 29 -24
29 -11 0 40 130 -74 216 -188 20 -27 62 -77 93 -111 65 -71 111 -140 86 -130
-8 3 -44 8 -80 12 -61 6 -65 6 -93 -23 -28 -27 -34 -29 -90 -25 -97 7 -153
-21 -204 -103 -35 -56 -38 -77 -27 -169 6 -44 11 -90 10 -100 0 -10 10 -27 23
-37 21 -17 44 -58 80 -142 17 -40 67 -77 104 -77 24 0 29 19 10 38 -7 7 -8 12
-2 12 5 0 15 -5 21 -11 6 -6 22 -12 36 -13 33 -4 149 -115 220 -211 28 -38 56
-76 62 -83 14 -20 105 -111 148 -150 20 -19 37 -37 37 -41 0 -4 48 -48 108
-98 59 -50 127 -112 152 -137 l44 -46 725 0 c625 0 723 2 711 14 -8 8 -53 39
-100 70 -47 30 -116 78 -155 104 -38 27 -117 77 -175 112 -58 34 -123 77 -145
95 -22 18 -58 41 -80 52 -42 21 -173 93 -215 119 -14 8 -42 23 -62 32 -21 9
-38 22 -38 29 0 31 -116 163 -143 163 -7 0 -24 8 -37 17 -14 10 -32 18 -40 18
-8 0 -16 10 -18 22 -5 34 148 158 227 184 l62 20 127 -108 c70 -59 146 -127
169 -150 48 -48 50 -49 55 -28 2 11 24 -9 63 -54 40 -48 62 -67 67 -58 6 9 8
9 8 -1 0 -8 6 -12 13 -9 7 2 30 -32 57 -87 139 -281 207 -380 308 -450 45 -31
72 -29 72 6 0 20 2 20 35 -12 19 -18 37 -31 40 -28 3 3 -5 30 -19 61 -13 30
-27 70 -30 88 -7 32 -5 30 24 -17 35 -60 59 -84 61 -63 1 8 0 25 -1 39 -2 21
3 18 42 -25 61 -67 78 -59 78 33 0 83 -19 161 -66 267 -20 44 -53 123 -74 175
-21 52 -50 116 -64 142 -58 108 -122 216 -156 263 -40 56 -59 93 -96 190 -13
37 -49 118 -79 182 -30 63 -55 117 -55 120 0 2 -20 46 -44 96 -50 106 -76 163
-76 170 0 13 -109 179 -166 253 -57 74 -308 349 -365 400 -13 12 -60 63 -104
114 -223 259 -318 321 -652 431 l-133 44 0 33 c0 18 -7 47 -16 64 -9 16 -18
56 -21 87 -3 31 -16 79 -29 107 -13 28 -24 57 -24 65 0 8 -11 32 -25 54 -13
22 -25 47 -25 56 0 10 -16 41 -36 70 -34 50 -67 107 -69 119 -5 25 -51 79 -72
85 -28 7 -53 28 -53 44 0 5 -13 18 -30 28 -16 9 -30 20 -30 24 0 4 -12 10 -26
13 -14 4 -35 16 -47 27 -12 11 -32 22 -44 25 -13 4 -23 10 -23 14 0 8 -67 23
-121 25 -20 1 -40 4 -45 7 -5 2 -20 3 -34 1z m858 -2735 c30 -7 60 -25 85 -50
21 -21 43 -38 48 -38 17 0 24 -2 55 -15 21 -9 36 -10 48 -3 12 7 21 7 29 -1
14 -14 47 -15 47 -1 0 5 7 6 17 3 12 -5 14 -3 8 7 -9 15 12 12 154 -19 56 -13
108 -19 128 -15 28 5 33 3 33 -13 0 -17 -57 -74 -208 -208 l-42 -38 -39 26
c-21 14 -55 33 -75 41 -20 8 -62 35 -94 58 -63 48 -67 51 -171 122 -49 34 -68
53 -61 60 15 15 12 52 -5 66 -15 12 -20 30 -9 30 3 0 26 -5 52 -12z"/>
</g>
</svg>
